#!OML:ASF E:/inclinewalkrobotboard/Project1/Captureday1/Session1/subject1.ASF
:FULLY-SPECIFIED
:DEGREES
251
root 0 0 0 -4.003409315010561 -3.340121189997788 -5.749856450181486
lowerback 11.998909513759138 0.19262216899563334 3.3907642247363867
upperback 0.39833592398540996 0.8642843763878214 2.8052835019654
thorax -6.308908345833984 0.3733394842397645 0.8934670180035444
lowerneck -15.730280677745638 -2.8638455411176684 -1.1765627853411025
upperneck 19.397785453576958 -3.5694862138357246 -0.03681590628733411
head 8.83899443468637 -1.78249361714799 -0.26694369682739677
rclavicle -3.759402966573544E-15 -3.624943296236959E-15
rhumerus -33.87229129225627 -22.0757152243807 -78.52498000356461
rradius 19.345312076059898
rwrist 7.916840737295606
rhand -17.80498343146551 26.295729376469453
rfingers 7.12502000000002
rthumb 8.454509850338289 -3.4980446088623154
lclavicle -5.879745592034577E-15 -4.614425310764643E-15
lhumerus -31.355526966995942 -0.6589564358337213 83.93891165718009
lradius 27.74911804699594
lwrist 6.342568590900349
lhand -27.67934761799795 24.523144647242695
lfingers 7.125020000000027
lthumb -1.0829924127136028 54.50996139631873
rfemur -7.918839337464801 8.278533377756379 33.18500655027016
rtibia 25.936927496619283
rfoot -17.5896558267982 -6.005227444185696
rtoes 10.783139630514084
lfemur -22.11838959166385 4.4642716781931995 -11.869498686948845
ltibia 72.01740512775686
lfoot 4.586142867049098 -11.855543084324955
ltoes -8.256311052627833
252
root 0 0 0 -3.239042949798705 -4.509399884713082 -6.661848412230383
lowerback 10.420970223026565 1.0643154307179281 4.979590208525819
upperback -0.21652565816916122 2.1840885959717733 2.5126595510337895
thorax -5.998237306166008 0.9798776149155277 -0.49536020957353843
lowerneck -16.96412484594981 -2.9592269575514574 -1.225879628194928
upperneck 21.659322492600705 -3.870234160591245 0.2212567627954216
head 9.76508007932526 -1.8373025180489455 -0.23896840745499653
rclavicle -6.605330112792603E-15 5.952475319326765E-16
rhumerus -32.88916220907967 -20.35525466553073 -79.2343613200972
rradius 21.142389083087004
rwrist 6.372535267127302
rhand -18.033037519121365 26.09004757688976
rfingers 7.125020000000018
rthumb 8.236774906903921 -3.714234374038135
lclavicle -8.340768770273657E-15 -2.291163260213862E-16
lhumerus -32.29549930885459 -0.20691991354277586 84.20376618567305
lradius 27.180966962405584
lwrist 6.285364603732206
lhand -27.590847164607844 24.68015525109009
lfingers 7.125020000000028
lthumb -0.9941851722922124 54.66650089500225
rfemur -5.2158747040607105 8.380921546672234 34.70641029936079
rtibia 25.37457908418338
rfoot -21.285297207539973 -6.259491091512148
rtoes 10.28441814455547
lfemur -25.66021325815134 4.633552012504333 -12.347809721846259
ltibia 66.40121965132238
lfoot 0.39025504085297946 -8.11919218862476
ltoes -5.180693982066263
253
root 0 0 0 -2.1580196011269126 -5.384492732397976 -7.3827437697887195
lowerback 10.480836083908322 1.596861996530968 6.232430846165834
upperback 0.09278417675259457 3.017465250196236 2.350310324163593
thorax -5.601934577734547 1.355937276914635 -1.480570280265474
lowerneck -18.555971461041985 -3.1943717513023047 -1.712493062147027
upperneck 21.07944131111187 -4.149717333352462 0.27662059627316604
head 9.790640467442511 -1.9670531359815364 -0.18944031716071286
rclavicle -7.390408190292596E-15 2.7012625658867857E-15
rhumerus -31.77452093007529 -18.34389471088422 -80.07869254667617
rradius 23.144508352071355
rwrist 4.831812151323434
rhand -18.32821176021134 26.061791799724254
rfingers 7.125020000000016
rthumb 7.951815817208512 -3.766165565892827
lclavicle -8.467780602336732E-15 1.9809419677561777E-15
lhumerus -32.84855062506401 0.06811730468291885 84.40596036847246
lradius 26.835888460060914
lwrist 6.211251638064679
lhand -27.549040462679564 24.553574732697868
lfingers 7.125020000000028
lthumb -0.9526433741941824 54.54307870175589
rfemur -4.58414638846763 8.30386613475087 34.60219111446612
rtibia 24.817898242014884
rfoot -22.03656673785992 -6.548229072862856
rtoes 9.925140607180044
lfemur -29.050660933679172 3.744686533052506 -13.033008294378423
ltibia 54.30756626026319
lfoot -4.55271798333842 -3.0803271930372547
ltoes -1.7583453467073689
254
root 0 0 0 -1.4584088205734536 -5.905741622803182 -7.508485674844653
lowerback 10.599891136812131 1.8785159317632658 6.550129530034426
upperback 0.5328662903481961 3.3959306687980746 2.1933950199543246
thorax -5.1648334374270055 1.5361239442692447 -1.8733618123085702
lowerneck -18.59423442702855 -3.1968846055169706 -1.878063361965856
upperneck 20.23490003948966 -4.093234881380799 0.317714068695369
head 9.467844859431299 -1.9629776875589442 -0.13783356375514522
rclavicle -7.192811347847479E-15 2.6424702980761233E-15
rhumerus -30.638615442061884 -16.21979460573361 -80.86903992454617
rradius 25.014825666753367
rwrist 3.642214453047816
rhand -18.59724492922701 26.297501008915745
rfingers 7.1250200000000135
rthumb 7.691096816433934 -3.559995963170593
lclavicle -7.678372847261412E-15 2.0649408072718116E-15
lhumerus -33.19595036825129 0.5297853478808372 84.57452539455102
lradius 26.315892162220745
lwrist 6.0969446674039585
lhand -27.585767385441653 24.53869414571559
lfingers 7.1250200000000286
lthumb -0.9897033077609736 54.53415044619924
rfemur -3.6943660222538934 8.313529856762717 34.53042389653809
rtibia 24.361391982170026
rfoot -22.249709611165585 -6.749867810759849
rtoes 8.839451728286875
lfemur -29.092080845239472 0.4887193730399928 -13.7445542740723
ltibia 32.83437572377034
lfoot -7.1886128678459675 1.5634800015009986
ltoes -0.7612242940222202
255
root 0 0 0 -0.9676469558459436 -6.188726561353141 -7.437073834227245
lowerback 10.508088461215214 2.0140363479874033 6.543399397131814
upperback 0.7152400856593059 3.539681104253524 2.0318998513265085
thorax -4.916887368742801 1.607989073876711 -2.063427648451642
lowerneck -18.142056115980267 -3.075201077049206 -1.8322009144486398
upperneck 19.009778594973042 -3.8739615364864672 0.29710292804843297
head 8.930574208422595 -1.8906587483560287 -0.1129731993245226
rclavicle -7.413179326598014E-15 1.7540851926504738E-15
rhumerus -29.93380797119653 -15.013295147727396 -81.15347842504232
rradius 26.103970808089166
rwrist 2.696220813251739
rhand -18.760053550550786 26.47215736467715
rfingers 7.125020000000011
rthumb 7.53429529891072 -3.3911679360110796
lclavicle -7.718726946464598E-15 1.3377659228642293E-15
lhumerus -33.624729441963154 1.253879946180899 84.57185367528332
lradius 25.608671613436677
lwrist 5.883729048531633
lhand -27.593091419125273 24.75055081056395
lfingers 7.1250200000000286
lthumb -0.997048028855338 54.75291315645684
rfemur 0.30858056445539894 8.491837033299829 35.26132230427378
rtibia 24.52646267421947
rfoot -22.10327150096203 -6.255257671291833
rtoes 4.584876559859951
lfemur -26.95800658412244 -3.38675897173611 -12.969518811122143
ltibia 22.304030410079505
lfoot -5.278997572114443 3.398461732423823
ltoes 0.38216647816513927
